PathFileType	4	(X/Y/Z)	AB05\squats_2.trc
DataRate	CameraRate	NumFrames	NumMarkers	Units	OrigDataRate	OrigDataStartFrame	OrigNumFrames
200.000000	200.000000	6	35	mm	200.000000	42	336
Frame#	Time	C7			LSHO			STRN			LASI			RASI			LPSI			RPSI			LGTR			RGTR			LTHC			LTHL			LTHR			LKNE			LMKNE			LSHC			LSHL			LSHR			LANK			LMANK			LMT1			LMT5			LCAL			RTHC			RTHL			RTHR			RKNE			RMKNE			RSHC			RSHL			RSHR			RANK			RMANK			RMT1			RMT5			RCAL			
		X1	Y1	Z1	X2	Y2	Z2	X3	Y3	Z3	X4	Y4	Z4	X5	Y5	Z5	X6	Y6	Z6	X7	Y7	Z7	X8	Y8	Z8	X9	Y9	Z9	X10	Y10	Z10	X11	Y11	Z11	X12	Y12	Z12	X13	Y13	Z13	X14	Y14	Z14	X15	Y15	Z15	X16	Y16	Z16	X17	Y17	Z17	X18	Y18	Z18	X19	Y19	Z19	X20	Y20	Z20	X21	Y21	Z21	X22	Y22	Z22	X23	Y23	Z23	X24	Y24	Z24	X25	Y25	Z25	X26	Y26	Z26	X27	Y27	Z27	X28	Y28	Z28	X29	Y29	Z29	X30	Y30	Z30	X31	Y31	Z31	X32	Y32	Z32	X33	Y33	Z33	X34	Y34	Z34	X35	Y35	Z35	

43	1.12	-2236.06627182989	1407.796312967153	2504.914181514175	-2157.62509967621	1348.082769817512	2365.442711330984	-2153.299506430848	1273.067992893987	2510.173339609249	-2361.630294206419	887.8737791036642	2367.57697184217	-2361.745105607871	894.3274342705141	2637.835501269636	-2518.655687023142	986.0789975140625	2438.894209098499	-2506.624021276925	997.9662056096507	2559.004582295939	-2428.938984717091	830.5534080063285	2304.571051303625	-2469.321332995464	846.1438431856026	2686.141673996549	-2266.229055815323	773.4169707262542	2353.256591124444	-2442.183116609391	688.4244313472974	2345.892718350543	-2338.043142878112	755.9522625951741	2297.127858128797	-2206.028348300189	505.9219681958953	2279.503786659611	-2193.205619342714	499.7207054984207	2403.066903073224	-2310.47422990105	393.226443570734	2279.416351944978	-2243.343742496554	243.5219212119219	2316.606381668479	-2241.424379869982	329.4493081138602	2387.661304118749	-2356.613242413544	109.909189534194	2286.265042645517	-2326.738497528948	110.9275589575306	2380.549272953039	-2199.192808115426	65.15584119551524	2350.76609661508	-2248.657301535929	54.91562745352963	2235.623460248133	-2420.885602589189	72.94741585525259	2345.611519480015	-2438.624650985417	674.7114358170691	2657.775400893442	-2339.225422688542	745.5160488961436	2714.671963774824	-2265.960507876108	761.6061903662008	2639.401731482109	-2219.840545643386	501.5146990671584	2728.725132151445	-2184.529085730233	497.6566853582227	2604.303753435902	-2245.092642078485	257.6136560669642	2696.419870508392	-2290.444776697803	411.6816559679473	2731.242605168069	-2232.365347643447	361.4525450352061	2620.726906991679	-2363.263220039238	106.1947934748591	2711.516874342201	-2326.094581059155	108.2074673510895	2620.386092102025	-2209.137816993542	63.59680934885154	2653.284244842941	-2244.347959608074	61.32796541473363	2760.191320416562	-2429.722227924141	73.94426146105693	2656.865012805008	
44	1.125	-2233.827668198922	1401.108854665001	2505.078775070171	-2155.106420495721	1340.686130811853	2365.887521747591	-2151.72930575594	1265.622406029111	2510.374756682935	-2364.664933933923	883.3029796275698	2367.48989195309	-2364.330000048127	889.5253383563635	2637.858151578918	-2520.916830683167	982.4792547317769	2439.174899941076	-2508.573653837666	994.1498427465107	2559.252743472066	-2431.946325670094	827.349233583969	2304.201505679096	-2471.96245458095	842.5224386248467	2686.699928023488	-2269.08725019082	772.1449021121305	2352.978394838165	-2444.051604573839	684.9961397558626	2345.404392217243	-2340.597782483035	753.8648953449473	2296.721026306995	-2205.743753016058	505.4692237914637	2278.360861766977	-2192.625915345472	499.3798090804453	2401.925203934441	-2309.966709338778	392.9348414777322	2278.557207931233	-2243.100593519674	243.2307646479995	2316.087216654255	-2240.927643777248	329.2851803248842	2386.90946712622	-2356.606060960261	109.8219442705568	2286.17372127212	-2326.727920698065	110.9579783226778	2380.448072898552	-2199.211257721357	65.16780044756824	2350.70363834296	-2248.678513568377	54.87977516343922	2235.535492322448	-2420.894346683076	72.90675573294408	2345.593722910457	-2439.953291758668	671.2486942727808	2658.37439888703	-2341.33154817832	743.2458311247893	2715.236682875511	-2268.155057007123	760.2730089298864	2640.155637926394	-2219.132046906666	500.8336340876476	2729.671583969768	-2183.490720987525	497.2973388961726	2605.212545794651	-2244.670269326758	257.1598657887523	2696.882522813913	-2289.580036926166	411.1761775185164	2732.088442389108	-2231.542775847335	361.1163723490125	2621.42557221665	-2363.218884264781	106.0568870620935	2711.544998941301	-2326.062399179133	108.1689647503629	2620.416140228161	-2209.139049673684	63.59451345033433	2653.339606888772	-2244.36196021391	61.30345294747097	2760.237875145126	-2429.702355582448	73.90728167641602	2656.850091035825	
45	1.13	-2231.62543258956	1394.377668204467	2505.240551591593	-2152.614397241336	1333.244171372119	2366.330775546853	-2150.181496886923	1258.149930065785	2510.569420252766	-2367.660960541585	878.7426884445168	2367.402040252178	-2366.88460095044	884.7256929275565	2637.879116802513	-2523.14752687497	978.8467602372899	2439.453794028806	-2510.4980374056	990.2990852050428	2559.49608988899	-2434.938565172488	824.1457347570374	2303.823034988729	-2474.571148732943	838.8956183971385	2687.265317445974	-2271.960616579481	770.8508017910726	2352.629886110959	-2445.908586035244	681.5725481004871	2344.940350971979	-2343.173738921074	751.7573908784348	2296.274405900156	-2205.520900817926	505.0251704460102	2277.190582777196	-2192.069017297364	499.060016749222	2400.750088428967	-2309.503899501121	392.6466048131897	2277.683611958796	-2242.879229341698	242.9493329093499	2315.54859048077	-2240.448606160949	329.1315858473998	2386.134895254689	-2356.602592564558	109.7339498791942	2286.081949861923	-2326.715960511226	110.9918866439347	2380.341358658007	-2199.229884787846	65.1819277574393	2350.63650875844	-2248.70072508091	54.84187772970474	2235.442719615919	-2420.902892897141	72.86588488631995	2345.576049781274	-2441.275403777701	667.7931982597779	2658.956797769441	-2343.445173426768	740.9730285864076	2715.794928958459	-2270.37518113513	758.9242428391575	2640.900339928006	-2218.485833627081	500.1686423083098	2730.623830874246	-2182.491368020816	496.9572265818186	2606.135562986156	-2244.27565330253	256.7208070812228	2697.355685743681	-2288.767205753732	410.6788702549923	2732.9369333383	-2230.747754174146	360.7941378721184	2622.134430551529	-2363.179931843705	105.9173706140731	2711.570177394309	-2326.030115932966	108.1336186771318	2620.449768636435	-2209.140862731858	63.59359643211275	2653.400398306751	-2244.377708929518	61.27898876465453	2760.288372544927	-2429.684392911353	73.8723584632146	2656.83415953652	
46	1.135	-2229.459901539606	1387.610841514693	2505.39972411493	-2150.150960482443	1325.766999853955	2366.772968341798	-2148.657867687008	1250.659132488146	2510.756851925999	-2370.616409932715	874.2000506212712	2367.314396179215	-2369.4066418189	879.933511793133	2637.896995096552	-2525.346198632844	975.1863550197585	2439.730719696894	-2512.395453289254	986.4181359234311	2559.734284009184	-2437.912809172792	820.9467513280933	2303.436147828516	-2477.144356770016	835.2663515672587	2687.835553225029	-2274.84501185991	769.5353876746879	2352.219279008912	-2447.752119817971	678.1578701708895	2344.500776258637	-2345.765544768454	749.6313694275364	2295.794053790385	-2205.355390764716	504.5898569033423	2276.0026384375	-2191.536106598602	498.7601962112725	2399.552074591963	-2309.083314597253	392.3626071643408	2276.802706093528	-2242.678204052871	242.6778653931345	2314.995833213935	-2239.986940091575	328.9878192218713	2385.344686194886	-2356.602475005009	109.6460489399021	2285.99109447557	-2326.702580338595	111.0286110398652	2380.230970288119	-2199.248545150408	65.19797043115898	2350.565726792499	-2248.72370388955	54.80241096529979	2235.346482153594	-2420.911056331012	72.82509042112552	2345.559071365274	-2442.587988719469	664.3470686362429	2659.519485160031	-2345.562283923746	738.6987094997924	2716.342767461254	-2272.61831368875	757.5597427410979	2641.629232318595	-2217.898831429606	499.520310311707	2731.576350021371	-2181.530664401803	496.6358492888747	2607.067296121525	-2243.907245270567	256.2972780759634	2697.836111143276	-2288.0046076996	410.1914455818539	2733.782515993436	-2229.979024710005	360.4858153525286	2622.849418274507	-2363.145782163942	105.7775031271105	2711.591339931028	-2325.997077421271	108.1015440034113	2620.485411763366	-2209.143509702003	63.59383690396034	2653.466264470854	-2244.395018019403	61.25485164322177	2760.342387290164	-2429.66818220393	73.83989466347737	2656.816732235744	
47	1.14	-2227.33129939001	1380.816244785503	2505.556504126566	-2147.717930829666	1318.264546978309	2367.214596939024	-2147.160260928788	1243.158353024616	2510.936716948952	-2373.529425819749	869.6819332617677	2367.227905031866	-2371.893807976605	875.1533930490348	2637.910222092522	-2527.511247665254	971.5030132742647	2440.005491857841	-2514.264035517093	982.5112932785443	2559.966996310116	-2440.865797904722	817.7561843788621	2303.041438721458	-2479.679083112449	831.6376829989531	2688.408278387146	-2277.736365792297	768.1994315243255	2351.756846140396	-2449.580278553253	674.7564866756156	2344.085133050026	-2348.367125611617	747.4890795981354	2295.286940420132	-2205.242371750904	504.1634126407773	2274.807385443892	-2191.028676119739	498.4789706245423	2398.342381165038	-2308.702226045415	392.0836843448319	2275.922002247629	-2242.495985553362	242.4165350692384	2314.434647141581	-2239.542516107331	328.8530432395657	2384.546374107946	-2356.605339339279	109.559052114471	2285.902481776891	-2326.687801967573	111.0674092181123	2380.118799506427	-2199.267106411028	65.21564217238524	2350.492367727913	-2248.747204008065	54.76188507428722	2235.248175553671	-2420.918664535132	72.78462959636936	2345.543325944639	-2443.888247260965	660.912510508848	2660.059688484826	-2347.678794432216	736.4239825735643	2716.876307641357	-2274.881663803928	756.1793353238879	2642.335687436471	-2217.367600476124	498.8891673847642	2732.523362427852	-2180.608353171583	496.3324891887293	2608.001834864242	-2243.563419398355	255.8899809846404	2698.320394483581	-2287.29027168283	409.7155613539175	2734.619516526988	-2229.235427478433	360.191229512269	2623.566255343062	-2363.11585094112	105.6385361948317	2711.607592158971	-2325.962746793599	108.0727909508128	2620.521588298962	-2209.147243889098	63.59501859750772	2653.53676274478	-2244.413680708586	61.23130160451372	2760.399443933146	-2429.653559565048	73.81021456826606	2656.797412313557	
48	1.145	-2225.239769929597	1374.001505929271	2505.711102014256	-2145.317037616735	1310.746515465786	2367.656139072139	-2145.690570011462	1235.655659957753	2511.108832352632	-2376.398221107192	865.1948825715625	2367.143460767093	-2374.34373020051	870.3895444307952	2637.917112666183	-2529.641056144107	967.8017836460435	2440.277909300426	-2516.101806411867	978.5829179259997	2560.193904686851	-2443.793889172678	814.577975939725	2302.639588600958	-2482.172385707942	828.0127291311971	2688.981109995404	-2280.630677848127	766.8437520209453	2351.254601359795	-2451.391109048839	671.3728926924572	2343.692219042846	-2350.971872528005	745.3333713847795	2294.760741414337	-2205.17660466902	503.7460424665074	2273.61561983751	-2190.548407484756	498.2147579506859	2397.13268320804	-2308.357689333752	391.810627657322	2275.049230067739	-2242.330963678802	242.1654451253735	2313.870970108158	-2239.115343514118	328.7263067709821	2383.747764070491	-2356.610809126883	109.473730013585	2285.817376001515	-2326.671697044455	111.1074883276129	2380.006744111937	-2199.285446810838	65.23462750532738	2350.417535863828	-2248.770969853641	54.72083079518069	2235.149218869188	-2420.925555409457	72.7447348069236	2345.529309478748	-2445.173589063454	657.4918177932454	2660.575077154823	-2349.790545639629	734.1500305308705	2717.391758620589	-2277.162216060572	754.7828340926704	2643.013145218292	-2216.888382849583	498.2756767518067	2733.458974604456	-2179.724268020057	496.0462083648148	2608.933009598186	-2243.242501601128	255.4995034723836	2698.805055940595	-2286.621950516796	409.2527790183577	2735.44230968437	-2228.515918742538	359.9100612576104	2624.280540906797	-2363.08956323686	105.5016823627308	2711.618238979462	-2325.926721737942	108.0473484148605	2620.556944989597	-2209.152304307514	63.59693767148677	2653.611365783774	-2244.43347658685	61.20857276775544	2760.459024283583	-2429.640362410257	73.78355953761698	2656.775905288001	
